<svg xmlns="http://www.w3.org/2000/svg" viewBox="0 0 449.4 480" id="mitten-the-kitten" fill="#fff">
<g id="mkl">
<g>
<path  d="M8.4,0,26.2,157.7,170.4,65.3ZM26,22,142.6,69.1,38.7,135.7Z"/>
<path data-name="ear"  d="M278.9,65.3l144.2,92.4L440.9,0Zm131.6,70.3L306.6,69,423.4,22Z"/>
</g><g>
<ellipse cx="140.3" cy="199.7" rx="8.1" ry="21.6"/>
<ellipse data-name="pupil"  cx="309" cy="199.7" rx="8.1" ry="21.6"/>
</g>
<path d="M224.7,30.5C100.5,30.5,0,131.1,0,255.2S100.5,480,224.7,480,449.4,379.4,449.4,255.3,348.8,30.5,224.7,30.5ZM110.2,199.7a30.1,30.1,0,1,1,30.1,30.1A30.13,30.13,0,0,1,110.2,199.7ZM228.7,345.5c.2.2,15.1,19.8,37.8,21.4,15.5,1.1,31.3-6.3,46.9-22l7.2,7.2c-16.6,16.7-33.8,25.1-51.1,25.1-1.3,0-2.6-.1-3.9-.2-19.9-1.4-34.4-13.8-41-20.8-6.7,7-21.1,19.3-41,20.8-1.3.1-2.6.2-3.9.2-17.3,0-34.4-8.4-51.1-25l7.2-7.2c15.7,15.7,31.5,23.1,46.9,22,22.7-1.6,37.7-21.2,37.8-21.4l1.5-1.5-36.1-62.6h77.5l-36.2,62.6M309,229.8a30.1,30.1,0,1,1,30.1-30.1A30.13,30.13,0,0,1,309,229.8Z"/>
</g>
</svg>
