<?xml version="1.0" encoding="utf-8"?>
<!-- Generator: Adobe Illustrator 21.1.0, SVG Export Plug-In . SVG Version: 6.00 Build 0)  -->
<svg version="1.1" id="icon" xmlns="http://www.w3.org/2000/svg" xmlns:xlink="http://www.w3.org/1999/xlink" x="0px" y="0px"
	 viewBox="0 0 960 960" style="enable-background:new 0 0 960 960;" xml:space="preserve">
<style type="text/css">
	.st0{opacity:0.15;}
	.st1{fill:url(#SVGID_1_);}
	.st2{fill:url(#SVGID_2_);}
	.st3{fill:url(#SVGID_3_);}
	.st4{fill:#FFFFFF;}
</style>
<g id="Frame">
	<g id="shadow" class="st0">
		<circle cx="480" cy="480" r="464"/>
	</g>
	<g id="frame">
		
			<linearGradient id="SVGID_1_" gradientUnits="userSpaceOnUse" x1="480" y1="936.4" x2="480" y2="23.6" gradientTransform="matrix(1 0 0 -1 0 960)">
			<stop  offset="0" style="stop-color:#FFFFFF"/>
			<stop  offset="1" style="stop-color:#D9D9D9"/>
		</linearGradient>
		<circle class="st1" cx="480" cy="480" r="456.4"/>
	</g>
</g>
<g id="Background">
	<g id="background">
		
			<linearGradient id="SVGID_2_" gradientUnits="userSpaceOnUse" x1="480" y1="901" x2="480" y2="59" gradientTransform="matrix(1 0 0 -1 0 960)">
			<stop  offset="0" style="stop-color:#FF5E7D"/>
			<stop  offset="1" style="stop-color:#FF2D55"/>
		</linearGradient>
		<circle class="st2" cx="480" cy="480" r="421"/>
	</g>
	<g id="inner-shadow">
		
			<radialGradient id="SVGID_3_" cx="480" cy="480" r="421" gradientTransform="matrix(1 0 0 -1 0 960)" gradientUnits="userSpaceOnUse">
			<stop  offset="0.8705" style="stop-color:#000000;stop-opacity:0"/>
			<stop  offset="0.9822" style="stop-color:#000000;stop-opacity:0.2587"/>
			<stop  offset="1" style="stop-color:#000000;stop-opacity:0.3"/>
		</radialGradient>
		<circle class="st3" cx="480" cy="480" r="421"/>
	</g>
</g>
<g id="mitten-the-kitten">
	<g id="ears">
		<path id="ear" class="st4" d="M263.8,252l17.8,157.7l144.2-92.4L263.8,252z M281.4,274L398,321.1l-103.9,66.6L281.4,274z"/>
		<path id="ear_1_" class="st4" d="M534.3,317.3l144.2,92.4L696.3,252L534.3,317.3z M665.9,387.6l-103.9-66.6L678.8,274L665.9,387.6
			z"/>
	</g>
	<g id="pupils">
		<ellipse id="pupil_3_" class="st4" cx="395.7" cy="451.7" rx="8.1" ry="21.6"/>
		<ellipse id="pupil_2_" class="st4" cx="564.4" cy="451.7" rx="8.1" ry="21.6"/>
	</g>
	<path id="head" class="st4" d="M480.1,282.5c-124.2,0-224.7,100.6-224.7,224.7S355.9,732,480.1,732s224.7-100.6,224.7-224.7
		S604.2,282.5,480.1,282.5z M365.6,451.7c0-16.6,13.5-30.1,30.1-30.1c16.6,0,30.1,13.5,30.1,30.1c0,16.6-13.5,30.1-30.1,30.1
		C379,481.8,365.6,468.3,365.6,451.7z M484.1,597.5c0.2,0.2,15.1,19.8,37.8,21.4c15.5,1.1,31.3-6.3,46.9-22l7.2,7.2
		c-16.6,16.7-33.8,25.1-51.1,25.1c-1.3,0-2.6-0.1-3.9-0.2c-19.9-1.4-34.4-13.8-41-20.8c-6.7,7-21.1,19.3-41,20.8
		c-1.3,0.1-2.6,0.2-3.9,0.2c-17.3,0-34.4-8.4-51.1-25l7.2-7.2c15.7,15.7,31.5,23.1,46.9,22c22.7-1.6,37.7-21.2,37.8-21.4l1.5-1.5
		l-36.1-62.6h77.5l-36.2,62.6 M564.4,481.8c-16.6,0-30.1-13.5-30.1-30.1c0-16.6,13.5-30.1,30.1-30.1s30.1,13.5,30.1,30.1
		C594.5,468.3,581.1,481.8,564.4,481.8z"/>
</g>
</svg>
